<?xml version="1.0" standalone="no"?>
<!DOCTYPE svg PUBLIC "-//W3C//DTD SVG 20010904//EN"
 "http://www.w3.org/TR/2001/REC-SVG-20010904/DTD/svg10.dtd">
<svg version="1.0" xmlns="http://www.w3.org/2000/svg"
 width="300.000000pt" height="300.000000pt" viewBox="0 0 300.000000 300.000000"
 preserveAspectRatio="xMidYMid meet">
<metadata>
Created by potrace 1.11, written by Peter Selinger 2001-2013
</metadata>
<g transform="translate(0.000000,300.000000) scale(0.100000,-0.100000)"
fill="#000000" stroke="none">
<path d="M0 1645 l0 -1355 145 0 145 0 0 -145 0 -145 1355 0 1355 0 0 1355 0
1355 -145 0 -145 0 0 145 0 145 -1355 0 -1355 0 0 -1355z m2660 1185 l0 -120
-1185 0 -1185 0 0 -1185 0 -1185 -120 0 -120 0 0 1305 0 1305 1305 0 1305 0 0
-120z m0 -1330 l0 -1160 -1160 0 -1160 0 0 1160 0 1160 1160 0 1160 0 0 -1160z
m290 -145 l0 -1305 -1305 0 -1305 0 0 120 0 120 1185 0 1185 0 0 1185 0 1185
120 0 120 0 0 -1305z"/>
<path d="M840 2343 c-28 -10 -67 -39 -106 -77 -76 -76 -105 -144 -112 -265
-11 -191 45 -303 303 -601 59 -69 125 -151 147 -184 119 -173 147 -358 79
-503 -64 -134 -167 -186 -297 -148 -50 14 -69 28 -130 90 l-72 73 -32 -33 -32
-33 68 -69 c96 -96 143 -118 264 -118 113 0 160 18 234 92 134 132 164 362 76
568 -33 78 -119 198 -245 345 -239 277 -299 408 -265 576 47 230 262 296 412
124 l44 -50 33 34 33 34 -56 56 c-30 31 -77 66 -103 78 -64 28 -181 34 -243
11z"/>
<path d="M1510 1415 l0 -915 45 0 45 0 0 440 0 440 320 0 320 0 0 -440 0 -440
45 0 45 0 0 915 0 915 -45 0 -45 0 0 -435 0 -435 -320 0 -320 0 0 435 0 435
-45 0 -45 0 0 -915z"/>
</g>
</svg>
